<?xml version="1.0" encoding="UTF-8" standalone="no"?>
<svg
   width="550"
   height="100"
   id="svg4428"
   version="1.1"
   inkscape:version="1.2.1 (9c6d41e410, 2022-07-14, custom)"
   sodipodi:docname="restore.svg"
   xmlns:inkscape="http://www.inkscape.org/namespaces/inkscape"
   xmlns:sodipodi="http://sodipodi.sourceforge.net/DTD/sodipodi-0.dtd"
   xmlns="http://www.w3.org/2000/svg"
   xmlns:svg="http://www.w3.org/2000/svg">
  <defs
     id="defs4430" />
  <sodipodi:namedview
     id="base"
     pagecolor="#303446"
     bordercolor="#666666"
     borderopacity="1.0"
     inkscape:pageopacity="1"
     inkscape:pageshadow="2"
     inkscape:zoom="6.513333"
     inkscape:cx="414.84137"
     inkscape:cy="45.214946"
     inkscape:document-units="px"
     inkscape:current-layer="layer1"
     showgrid="true"
     inkscape:snap-bbox="true"
     inkscape:window-width="1920"
     inkscape:window-height="1004"
     inkscape:window-x="0"
     inkscape:window-y="0"
     inkscape:window-maximized="1"
     showborder="true"
     inkscape:showpageshadow="false"
     inkscape:pagecheckerboard="0"
     inkscape:deskcolor="#eff0f1">
    <inkscape:grid
       type="xygrid"
       id="grid1031"
       originx="0"
       originy="0" />
  </sodipodi:namedview>
  <defs
     id="defs3">
    <style
       id="current-color-scheme"
       type="text/css">.ColorScheme-Text {
        color:#e0e0e0;
        stop-color:#e0e0e0;
      }
      .ColorScheme-Background {
        color:#2c2c2c;
        stop-color:#2c2c2c;
      }
      .ColorScheme-HeaderBackground {
        color:#242424;
        stop-color:#242424;
      }
      .ColorScheme-Highlight {
        color:#e0e0e0;
        stop-color:#e0e0e0;
      }</style>
  </defs>
  <g
     inkscape:label="Layer 1"
     inkscape:groupmode="layer"
     id="layer1"
     transform="translate(0,-1098.5197)">
    <path
       id="chevron"
       style="fill:#303446;fill-opacity:1;stroke-width:0.999997"
       d="m 64.983812,1051.0978 a 9.1384329,9.3548057 0 0 1 -6.47281,-2.7509 l -21.003398,-21.5004 a 9.1384329,9.3548057 0 0 1 0,-13.2529 l 0.0084,0.044 a 9.1384329,9.3548057 0 0 1 12.94631,0 L 65,1028.5197 79.537613,1013.638 a 9.1543376,9.371087 0 0 1 12.946318,13.2524 l -21.025902,21.4776 a 9.1384329,9.3548057 0 0 1 -6.473344,2.7512 z" />
    <g
       id="g15011"
       transform="translate(20.926108,24.18555)">
      <path
         id="path65245"
         style="fill:#303446;fill-opacity:1;stroke-width:0.999993"
         d="m -42.321475,1015.3807 c 1.470837,-1.4706 5.5109,-2.0486 7.441899,-1.8603 h 23.25592 c 4.0228184,0.3783 6.5116545,1.1378 6.5115976,12.093 l 3.38e-5,-6.5115 c -9.7e-6,1.8603 -0.065453,10.2323 -6.5117134,10.2323 l -18.60474,-10e-5 -8.2e-5,15.8137 c -0.119571,4.0318 -3.720993,8.3719 -7.441933,8.3719 -4.03392,-10e-5 -7.550478,-4.3394 -7.441857,-8.372 l 1.26e-4,-24.1857 c 0.05041,-1.9387 0.930259,-3.7208 2.790749,-5.5813 z"
         sodipodi:nodetypes="scccccccsccs" />
      <path
         id="path65899"
         style="fill:#303446;fill-opacity:1;stroke-width:1"
         d="m -62.799796,1015.5228 c -1.459278,-1.478 -5.494476,-2.0857 -7.426748,-1.913 l -23.253694,-0.1803 c -4.025373,0.3459 -6.519852,1.0842 -6.604852,12.0088 l 0.0505,-6.4932 c -0.0144,1.855 -0.0141,10.2043 6.431628,10.2543 L -75,1029.3436 l -0.122693,15.7697 c 0.08826,4.0213 3.655641,8.3773 7.376223,8.4062 4.033525,0.031 7.583447,-4.2687 7.506137,-8.2909 l 0.187644,-24.1185 c -0.03536,-1.9337 -0.901281,-3.7177 -2.747137,-5.5873 z"
         sodipodi:nodetypes="scccccccsccs" />
      <path
         id="path65911"
         style="fill:#303446;fill-opacity:1;stroke-width:0.999992"
         d="m -42.06042,996.51189 c 1.474081,1.46856 5.515188,2.0378 7.445634,1.84501 l 23.25433,-0.0532 c 4.021676,-0.3877 6.5086068,-1.15351 6.483618,-12.11753 l 0.014852,6.5167 c -0.00424,-1.86183 -0.08874,-10.24048 -6.534543,-10.22574 L -30,982.5197 -30.03607,966.69327 c -0.128726,-4.03466 -3.739797,-8.37013 -7.460477,-8.36162 -4.03364,0.009 -7.540093,4.35998 -7.422293,8.39567 l 0.05517,24.20522 c 0.05482,1.94016 0.938665,3.72171 2.803254,5.57936 z"
         sodipodi:nodetypes="scccccccsccs" />
      <path
         id="path65913"
         style="fill:#303446;fill-opacity:1;stroke-width:0.999987"
         d="m -62.743943,996.42634 c -1.457823,1.47482 -5.489575,2.08174 -7.420278,1.90971 l -23.234418,0.18365 C -97.420716,998.17519 -99.913267,997.43926 -100,986.54024 l 0.0516,6.47806 c -0.01471,-1.85078 -0.01581,-10.18042 6.4246,-10.23132 l 18.587541,-0.14689 -0.125203,-15.73259 c 0.08753,-4.01187 3.651227,-8.35825 7.368726,-8.38763 4.030181,-0.0318 7.577871,4.25734 7.501291,8.27009 L -60,990.85167 c -0.03502,1.92916 -0.899917,3.7091 -2.743943,5.57467 z"
         sodipodi:nodetypes="scccccccsccs" />
    </g>
    <circle
       style="fill:#a6d189;fill-opacity:1;fill-rule:evenodd;stroke-width:0.999999"
       id="active-center"
       cx="60"
       cy="1153.5197"
       r="35"
       inkscape:label="" />
    <g
       id="hover-center">
      <circle
         style="fill:#a6d189;fill-opacity:1;fill-rule:evenodd;stroke-width:0.999999"
         id="circle18377"
         cx="135"
         cy="1153.5197"
         r="35"
         inkscape:label="" />
      <path
         id="path18401"
         style="fill:#303446;fill-opacity:1;stroke-width:0.999993"
         d="m 139.15972,1157.3822 c 0.61522,-0.6151 2.30511,-0.8568 3.11281,-0.7781 h 9.72751 c 1.68266,0.1583 2.7237,0.4759 2.72367,5.0583 l 2e-5,-2.7236 c -1e-5,0.7781 -0.0274,4.2799 -2.72373,4.2799 h -7.78201 l -3e-5,6.6146 c -0.05,1.6864 -1.55642,3.5018 -3.11282,3.5018 -1.68731,-10e-5 -3.15822,-1.8151 -3.11279,-3.5019 l 5e-5,-10.1164 c 0.0211,-0.8109 0.38911,-1.5563 1.16732,-2.3346 z"
         sodipodi:nodetypes="scccccccsccs" />
      <path
         id="path18403"
         style="fill:#303446;fill-opacity:1;stroke-width:0.999997"
         d="m 130.59403,1157.4417 c -0.61039,-0.6182 -2.29824,-0.8724 -3.10647,-0.8002 l -9.72658,-0.075 c -1.68374,0.1447 -2.72713,0.4535 -2.76268,5.023 l 0.0211,-2.7159 c -0.006,0.7759 -0.006,4.2682 2.69023,4.2891 l 7.78126,0.06 -0.0513,6.5961 c 0.0369,1.6821 1.52909,3.5041 3.08534,3.5162 1.68715,0.013 3.17201,-1.7855 3.13967,-3.4679 l 0.0785,-10.0884 c -0.0148,-0.8088 -0.37699,-1.555 -1.14907,-2.337 z"
         sodipodi:nodetypes="scccccccsccs" />
      <path
         id="path18405"
         style="fill:#303446;fill-opacity:1;stroke-width:0.999993"
         d="m 139.26892,1149.4898 c 0.61658,0.6143 2.30689,0.8524 3.11436,0.7717 l 9.72685,-0.022 c 1.68219,-0.1622 2.72242,-0.4825 2.71197,-5.0686 l 0.006,2.7258 c -0.002,-0.7787 -0.0371,-4.2834 -2.73327,-4.2772 l -7.78148,0.018 -0.0151,-6.6199 c -0.0538,-1.6876 -1.56428,-3.501 -3.12057,-3.4975 -1.6872,0 -3.15388,1.8237 -3.10461,3.5118 l 0.0231,10.1245 c 0.0229,0.8116 0.39262,1.5568 1.17255,2.3338 z"
         sodipodi:nodetypes="scccccccsccs" />
      <path
         id="path18407"
         style="fill:#303446;fill-opacity:1;stroke-width:0.999984"
         d="m 130.61739,1149.454 c -0.60978,0.6169 -2.29618,0.8707 -3.10376,0.7988 l -9.71852,0.077 c -1.68236,-0.1441 -2.72494,-0.4519 -2.76122,-5.0108 l 0.0216,2.7097 c -0.006,-0.7742 -0.007,-4.2583 2.68729,-4.2796 l 7.77482,-0.061 -0.0524,-6.5807 c 0.0366,-1.6781 1.52723,-3.4961 3.08219,-3.5084 1.68575,-0.013 3.16968,1.7808 3.13765,3.4593 l 0.0801,10.0645 c -0.0146,0.8069 -0.37642,1.5515 -1.14774,2.3318 z"
         sodipodi:nodetypes="scccccccsccs" />
    </g>
    <g
       id="pressed-center">
      <circle
         style="fill:#a6d189;fill-opacity:1;fill-rule:evenodd;stroke-width:0.999999"
         id="circle18436"
         cx="210"
         cy="1153.519"
         r="35"
         inkscape:label="" />
      <path
         id="path18438"
         style="fill:#303446;fill-opacity:1;stroke-width:0.999993"
         d="m 214.15972,1157.3816 c 0.61522,-0.6151 2.30511,-0.8568 3.11281,-0.7781 h 9.72751 c 1.68266,0.1583 2.7237,0.4759 2.72367,5.0583 l 2e-5,-2.7236 c -1e-5,0.7781 -0.0274,4.2799 -2.72373,4.2799 h -7.78201 l -3e-5,6.6146 c -0.05,1.6864 -1.55642,3.5018 -3.11282,3.5018 -1.68731,-10e-5 -3.15822,-1.8151 -3.11279,-3.5019 l 5e-5,-10.1164 c 0.0211,-0.8109 0.38911,-1.5563 1.16732,-2.3346 z"
         sodipodi:nodetypes="scccccccsccs" />
      <path
         id="path18440"
         style="fill:#303446;fill-opacity:1;stroke-width:0.999997"
         d="m 205.59403,1157.4411 c -0.61039,-0.6182 -2.29824,-0.8724 -3.10647,-0.8002 l -9.72658,-0.075 c -1.68374,0.1447 -2.72713,0.4535 -2.76268,5.023 l 0.0211,-2.7159 c -0.006,0.7759 -0.006,4.2682 2.69023,4.2891 l 7.78126,0.06 -0.0513,6.5961 c 0.0369,1.6821 1.52909,3.5041 3.08534,3.5162 1.68715,0.013 3.17201,-1.7855 3.13967,-3.4679 l 0.0785,-10.0884 c -0.0148,-0.8088 -0.37699,-1.555 -1.14907,-2.337 z"
         sodipodi:nodetypes="scccccccsccs" />
      <path
         id="path18442"
         style="fill:#303446;fill-opacity:1;stroke-width:0.999993"
         d="m 214.26892,1149.4892 c 0.61658,0.6143 2.30689,0.8524 3.11436,0.7717 l 9.72685,-0.022 c 1.68219,-0.1622 2.72242,-0.4825 2.71197,-5.0686 l 0.006,2.7258 c -0.002,-0.7787 -0.0371,-4.2834 -2.73327,-4.2772 l -7.78148,0.018 -0.0151,-6.6199 c -0.0538,-1.6876 -1.56428,-3.501 -3.12057,-3.4975 -1.6872,0 -3.15388,1.8237 -3.10461,3.5118 l 0.0231,10.1245 c 0.0229,0.8116 0.39262,1.5568 1.17255,2.3338 z"
         sodipodi:nodetypes="scccccccsccs" />
      <path
         id="path18444"
         style="fill:#303446;fill-opacity:1;stroke-width:0.999983"
         d="m 205.61739,1149.4534 c -0.60978,0.6169 -2.29618,0.8707 -3.10376,0.7988 l -9.71852,0.077 c -1.68236,-0.1441 -2.72494,-0.4519 -2.76122,-5.0108 l 0.0216,2.7097 c -0.006,-0.7742 -0.007,-4.2583 2.68729,-4.2796 l 7.77482,-0.061 -0.0524,-6.5807 c 0.0366,-1.6781 1.52723,-3.4961 3.08219,-3.5084 1.68575,-0.013 3.16968,1.7808 3.13765,3.4593 l 0.0801,10.0645 c -0.0146,0.8069 -0.37642,1.5515 -1.14774,2.3318 z"
         sodipodi:nodetypes="scccccccsccs" />
      <circle
         style="fill:#000000;fill-rule:evenodd;fill-opacity:1;opacity:0.3"
         id="circle18483"
         cx="210"
         cy="1153.5197"
         r="35" />
    </g>
    <g
       id="g18556">
      <ellipse
         style="fill:#414559;fill-opacity:1;fill-rule:evenodd;stroke-width:1.00001"
         id="circle18504"
         cx="285"
         cy="1153.52"
         rx="34.999996"
         ry="34.999695" />
      <path
         id="path18496"
         style="fill:#303446;fill-opacity:1;stroke-width:0.999994"
         d="m 289.15972,1157.3819 c 0.61522,-0.6151 2.30511,-0.8568 3.11281,-0.7781 h 9.72751 c 1.68266,0.1583 2.7237,0.4759 2.72367,5.0583 l 2e-5,-2.7236 c -10e-6,0.7781 -0.0274,4.2799 -2.72373,4.2799 h -7.78201 l -3e-5,6.6145 c -0.05,1.6864 -1.55642,3.5018 -3.11282,3.5018 -1.68731,-1e-4 -3.15822,-1.8151 -3.11279,-3.5019 l 5e-5,-10.1163 c 0.0211,-0.8109 0.38911,-1.5563 1.16732,-2.3346 z"
         sodipodi:nodetypes="scccccccsccs" />
      <path
         id="path18498"
         style="fill:#303446;fill-opacity:1;stroke-width:0.999994"
         d="m 280.59403,1157.4414 c -0.61039,-0.6182 -2.29824,-0.8724 -3.10647,-0.8002 l -9.72658,-0.075 c -1.68374,0.1447 -2.72712,0.4535 -2.76267,5.023 l 0.0211,-2.7159 c -0.006,0.7759 -0.006,4.2682 2.69022,4.2891 l 7.78126,0.06 -0.0513,6.596 c 0.0369,1.6821 1.52909,3.5041 3.08534,3.5162 1.68715,0.013 3.17201,-1.7855 3.13967,-3.4679 l 0.0785,-10.0883 c -0.0148,-0.8088 -0.37699,-1.555 -1.14907,-2.337 z"
         sodipodi:nodetypes="scccccccsccs" />
      <path
         id="path18500"
         style="fill:#303446;fill-opacity:1;stroke-width:0.999994"
         d="m 289.26892,1149.4896 c 0.61658,0.6143 2.30689,0.8524 3.11436,0.7717 l 9.72685,-0.022 c 1.68219,-0.1622 2.72242,-0.4825 2.71197,-5.0686 l 0.006,2.7258 c -0.002,-0.7787 -0.0371,-4.2834 -2.73327,-4.2772 l -7.78148,0.018 -0.0151,-6.6198 c -0.0538,-1.6876 -1.56428,-3.501 -3.12057,-3.4975 -1.6872,0 -3.15388,1.8237 -3.10461,3.5118 l 0.0231,10.1244 c 0.0229,0.8116 0.39262,1.5568 1.17255,2.3338 z"
         sodipodi:nodetypes="scccccccsccs" />
      <path
         id="path18502"
         style="fill:#303446;fill-opacity:1;stroke-width:0.999984"
         d="m 280.61739,1149.4538 c -0.60978,0.6169 -2.29618,0.8707 -3.10376,0.7988 l -9.71852,0.077 c -1.68236,-0.1441 -2.72493,-0.4519 -2.76121,-5.0108 l 0.0216,2.7097 c -0.006,-0.7742 -0.007,-4.2583 2.68728,-4.2796 l 7.77482,-0.061 -0.0524,-6.5806 c 0.0366,-1.6781 1.52723,-3.4961 3.08219,-3.5084 1.68575,-0.013 3.16968,1.7808 3.13765,3.4593 l 0.0801,10.0644 c -0.0146,0.8069 -0.37642,1.5515 -1.14774,2.3318 z"
         sodipodi:nodetypes="scccccccsccs" />
    </g>
    <circle
       style="fill:#414559;fill-opacity:1;fill-rule:evenodd;stroke-width:0.999999"
       id="inactive-center"
       cx="360"
       cy="1153.5197"
       r="35"
       inkscape:label="" />
    <circle
       style="fill:#414559;fill-opacity:1;fill-rule:evenodd;stroke-width:0.999999"
       id="deactivated-center"
       cx="434.99997"
       cy="1153.5197"
       r="35"
       inkscape:label="" />
    <circle
       style="fill:#414559;fill-opacity:1;fill-rule:evenodd;stroke-width:0.999999"
       id="deactivated-inactive-center"
       cx="510"
       cy="1153.5197"
       r="35"
       inkscape:label="" />
  </g>
</svg>
