<?xml version="1.0" encoding="UTF-8" standalone="no"?>
<svg
   width="550"
   height="100"
   id="svg4428"
   version="1.1"
   inkscape:version="1.2.1 (9c6d41e410, 2022-07-14, custom)"
   sodipodi:docname="maximize.svg"
   xmlns:inkscape="http://www.inkscape.org/namespaces/inkscape"
   xmlns:sodipodi="http://sodipodi.sourceforge.net/DTD/sodipodi-0.dtd"
   xmlns="http://www.w3.org/2000/svg"
   xmlns:svg="http://www.w3.org/2000/svg">
  <defs
     id="defs3">
    <style
       id="current-color-scheme"
       type="text/css">.ColorScheme-Text {
        color:#e0e0e0;
        stop-color:#e0e0e0;
      }
      .ColorScheme-Background {
        color:#2c2c3c;
        stop-color:#2c2c3c;
      }
      .ColorScheme-HeaderBackground {
        color:#eff1f5;
        stop-color:#eff1f5;
      }
      .ColorScheme-Highlight {
        color:#e0e0e0;
        stop-color:#e0e0e0;
      }</style>
  </defs>
  <sodipodi:namedview
     id="base"
     pagecolor="#eff1f5"
     bordercolor="#666666"
     borderopacity="1.0"
     inkscape:pageopacity="1"
     inkscape:pageshadow="2"
     inkscape:zoom="5.3793079"
     inkscape:cx="132.82378"
     inkscape:cy="53.352588"
     inkscape:document-units="px"
     inkscape:current-layer="layer1"
     showgrid="true"
     inkscape:snap-bbox="true"
     inkscape:window-width="1920"
     inkscape:window-height="1003"
     inkscape:window-x="0"
     inkscape:window-y="0"
     inkscape:window-maximized="1"
     showborder="true"
     inkscape:showpageshadow="false"
     inkscape:pagecheckerboard="0"
     inkscape:deskcolor="#eff0f1">
    <inkscape:grid
       type="xygrid"
       id="grid46091" />
  </sodipodi:namedview>
  <g
     inkscape:label="Layer 1"
     inkscape:groupmode="layer"
     id="layer1"
     transform="translate(0,-1098.5197)">
    <circle
       style="fill:#40a02b;fill-rule:evenodd;fill-opacity:1"
       id="active-center"
       cx="55"
       cy="1148.5197"
       r="35" />
    <circle
       style="fill:#ccd0da;fill-opacity:1;fill-rule:evenodd;stroke-width:0.999999"
       id="inactive-center"
       cx="354.99997"
       cy="1148.5197"
       r="35"
       inkscape:label="" />
    <circle
       style="fill:#ccd0da;fill-opacity:1;fill-rule:evenodd;stroke-width:0.999999"
       id="deactivated-center"
       cx="429.99994"
       cy="1148.5197"
       r="35"
       inkscape:label="" />
    <circle
       style="fill:#ccd0da;fill-opacity:1;fill-rule:evenodd;stroke-width:0.999999"
       id="deactivated-inactive-center"
       cx="505"
       cy="1148.5197"
       r="35"
       inkscape:label="" />
    <g
       id="g67555">
      <path
         id="path65245"
         style="stroke-width:0.99999"
         d="m 172.20947,1056.6264 c -1.47083,1.4695 -5.51089,2.047 -7.44189,1.8589 H 141.51166 C 137.48884,1058.1074 135,1057.3486 135,1046.4026 v 6.506 c 0,-1.8588 0.0654,-10.2237 6.51166,-10.2237 h 18.60474 v -15.8004 c 0.11955,-4.0283 3.72095,-8.3648 7.44189,-8.3648 4.03392,0 7.5505,4.3356 7.4419,8.3648 v 24.1653 c -0.0504,1.9371 -0.93024,3.7177 -2.79072,5.5766 z"
         sodipodi:nodetypes="scccccccsccs" />
      <path
         id="path65899"
         style="stroke-width:1"
         d="m 82.792981,1056.6263 c 1.470731,1.4695 5.510531,2.047 7.441404,1.8589 H 113.48878 C 117.51133,1058.1073 120,1057.3485 120,1046.4025 v 6.506 c 0,-1.8588 -0.0653,-10.2237 -6.51122,-10.2237 H 94.88526 v -15.8004 c -0.119549,-4.0282 -3.720707,-8.3647 -7.441405,-8.3647 -4.033648,0 -7.550001,4.3356 -7.441404,8.3647 v 24.1653 c 0.05039,1.9371 0.930176,3.7177 2.79053,5.5766 z"
         sodipodi:nodetypes="scccccccsccs" />
      <path
         id="path65911"
         style="stroke-width:0.999994"
         d="m 172.20702,965.41307 c -1.47073,-1.46951 -5.51053,-2.04702 -7.44141,-1.85895 H 141.51122 C 137.48867,963.93199 135,964.69084 135,975.63679 v -6.50595 c 0,1.85875 0.0654,10.22373 6.51122,10.22373 h 18.60352 v 15.80031 c 0.11953,4.02829 3.72071,8.36482 7.4414,8.36482 4.03365,0 7.55001,-4.33555 7.44141,-8.36482 v -24.16529 c -0.0504,-1.93707 -0.93018,-3.71769 -2.79053,-5.57652 z"
         sodipodi:nodetypes="scccccccsccs" />
      <path
         id="path65913"
         style="stroke-width:0.99999"
         d="m 82.79298,965.41315 c 1.470732,-1.46951 5.510532,-2.047 7.441405,-1.85893 H 113.48879 C 117.51133,963.9321 120,964.69094 120,975.63689 v -6.50596 c 0,1.85876 -0.0653,10.22373 -6.51121,10.22373 H 94.885259 v 15.80031 c -0.119548,4.0282 -3.720706,8.36473 -7.441404,8.36473 -4.033647,0 -7.550002,-4.33555 -7.441404,-8.36473 v -24.16528 c 0.05039,-1.93707 0.930175,-3.71769 2.790529,-5.57654 z"
         sodipodi:nodetypes="scccccccsccs" />
    </g>
    <g
       id="hover-center">
      <circle
         style="fill:#40a02b;fill-opacity:1;fill-rule:evenodd"
         id="circle57914"
         cx="130"
         cy="1148.5197"
         r="35" />
      <path
         id="path67593"
         style="stroke-width:0.999987;fill:#eff1f5;fill-opacity:1"
         d="m 148.79651,1167.7225 c -0.61929,0.6187 -2.32037,0.8619 -3.13342,0.7827 h -9.79197 c -1.69381,-0.1591 -2.74175,-0.4786 -2.74175,-5.0875 v 2.7394 c 0,-0.7826 0.0275,-4.3047 2.74175,-4.3047 h 7.83358 v -6.6528 c 0.0503,-1.6961 1.56671,-3.522 3.13342,-3.522 1.69849,0 3.17916,1.8255 3.13343,3.522 v 10.1749 c -0.0212,0.8156 -0.39168,1.5653 -1.17504,2.348 z"
         sodipodi:nodetypes="scccccccsccs" />
      <path
         id="path67595"
         style="stroke-width:0.999995;fill:#eff1f5;fill-opacity:1"
         d="m 111.14748,1167.7225 c 0.61925,0.6187 2.32022,0.8619 3.13322,0.7827 h 9.79132 c 1.6937,-0.1592 2.74157,-0.4787 2.74157,-5.0875 v 2.7394 c 0,-0.7827 -0.0275,-4.3047 -2.74157,-4.3047 h -7.83306 v -6.6528 c -0.0503,-1.6961 -1.56661,-3.522 -3.13322,-3.522 -1.69838,0 -3.17895,1.8255 -3.13322,3.522 v 10.1748 c 0.0212,0.8156 0.39165,1.5654 1.17496,2.3481 z"
         sodipodi:nodetypes="scccccccsccs" />
      <path
         id="path67597"
         style="stroke-width:0.999991;fill:#eff1f5;fill-opacity:1"
         d="m 148.79548,1129.3169 c -0.61925,-0.6187 -2.32022,-0.8619 -3.13322,-0.7827 h -9.79132 c -1.69371,0.1591 -2.74157,0.4786 -2.74157,5.0874 v -2.7393 c 0,0.7826 0.0275,4.3047 2.74157,4.3047 h 7.83306 v 6.6528 c 0.0503,1.6961 1.56661,3.522 3.13322,3.522 1.69837,0 3.17895,-1.8255 3.13322,-3.522 v -10.1749 c -0.0212,-0.8156 -0.39165,-1.5653 -1.17496,-2.348 z"
         sodipodi:nodetypes="scccccccsccs" />
      <path
         id="path67599"
         style="stroke-width:0.999987;fill:#eff1f5;fill-opacity:1"
         d="m 111.14748,1129.3169 c 0.61925,-0.6187 2.32022,-0.8619 3.13322,-0.7827 h 9.79132 c 1.6937,0.1591 2.74157,0.4787 2.74157,5.0875 v -2.7394 c 0,0.7827 -0.0275,4.3047 -2.74157,4.3047 h -7.83306 v 6.6528 c -0.0503,1.6961 -1.56661,3.522 -3.13322,3.522 -1.69838,0 -3.17895,-1.8255 -3.13322,-3.522 v -10.1748 c 0.0212,-0.8157 0.39165,-1.5654 1.17496,-2.3481 z"
         sodipodi:nodetypes="scccccccsccs" />
    </g>
    <g
       id="pressed-center">
      <circle
         style="fill:#40a02b;fill-opacity:1;fill-rule:evenodd;stroke-width:1"
         id="circle317"
         cx="204.99998"
         cy="1148.5197"
         r="35" />
      <path
         id="path319"
         style="fill:#eff1f5;fill-opacity:1;stroke-width:0.999984"
         d="m 223.7965,1167.7225 c -0.61929,0.6187 -2.32037,0.8619 -3.13342,0.7827 h -9.79197 c -1.69381,-0.1591 -2.74175,-0.4786 -2.74175,-5.0875 v 2.7394 c 0,-0.7826 0.0275,-4.3047 2.74175,-4.3047 h 7.83358 v -6.6528 c 0.0503,-1.6961 1.56671,-3.522 3.13342,-3.522 1.69849,0 3.17916,1.8255 3.13343,3.522 v 10.1749 c -0.0212,0.8156 -0.39168,1.5653 -1.17504,2.348 z"
         sodipodi:nodetypes="scccccccsccs" />
      <path
         id="path321"
         style="fill:#eff1f5;fill-opacity:1;stroke-width:0.999994"
         d="m 186.14747,1167.7225 c 0.61925,0.6187 2.32022,0.8619 3.13322,0.7827 h 9.79132 c 1.6937,-0.1592 2.74157,-0.4787 2.74157,-5.0875 v 2.7394 c 0,-0.7827 -0.0275,-4.3047 -2.74157,-4.3047 h -7.83306 v -6.6528 c -0.0503,-1.6961 -1.56661,-3.522 -3.13322,-3.522 -1.69838,0 -3.17895,1.8255 -3.13322,3.522 v 10.1748 c 0.0212,0.8156 0.39165,1.5654 1.17496,2.3481 z"
         sodipodi:nodetypes="scccccccsccs" />
      <path
         id="path323"
         style="fill:#eff1f5;fill-opacity:1;stroke-width:0.999994"
         d="m 223.79547,1129.3169 c -0.61925,-0.6187 -2.32022,-0.8619 -3.13322,-0.7827 h -9.79132 c -1.69371,0.1591 -2.74157,0.4786 -2.74157,5.0874 v -2.7393 c 0,0.7826 0.0275,4.3047 2.74157,4.3047 h 7.83306 v 6.6528 c 0.0503,1.6961 1.56661,3.522 3.13322,3.522 1.69837,0 3.17895,-1.8255 3.13322,-3.522 v -10.1749 c -0.0212,-0.8156 -0.39165,-1.5653 -1.17496,-2.348 z"
         sodipodi:nodetypes="scccccccsccs" />
      <path
         id="path325"
         style="fill:#eff1f5;fill-opacity:1;stroke-width:0.999984"
         d="m 186.14747,1129.3169 c 0.61925,-0.6187 2.32022,-0.8619 3.13322,-0.7827 h 9.79132 c 1.6937,0.1591 2.74157,0.4787 2.74157,5.0875 v -2.7394 c 0,0.7827 -0.0275,4.3047 -2.74157,4.3047 h -7.83306 v 6.6528 c -0.0503,1.6961 -1.56661,3.522 -3.13322,3.522 -1.69838,0 -3.17895,-1.8255 -3.13322,-3.522 v -10.1748 c 0.0212,-0.8157 0.39165,-1.5654 1.17496,-2.3481 z"
         sodipodi:nodetypes="scccccccsccs" />
      <circle
         style="fill:#000000;fill-rule:evenodd;fill-opacity:1;opacity:0.3"
         id="path388"
         cx="205"
         cy="1148.5197"
         r="35" />
    </g>
    <g
       id="hover-inactive-center">
      <circle
         style="fill:#ccd0da;fill-opacity:1;fill-rule:evenodd;stroke-width:1"
         id="circle328"
         cx="280.00006"
         cy="1148.5197"
         r="35" />
      <path
         id="path320"
         style="fill:#eff1f5;fill-opacity:1;stroke-width:0.999983"
         d="m 298.79655,1167.7225 c -0.61929,0.6187 -2.32037,0.8619 -3.13342,0.7827 h -9.79197 c -1.69381,-0.1591 -2.74175,-0.4786 -2.74175,-5.0875 v 2.7394 c 0,-0.7826 0.0275,-4.3047 2.74175,-4.3047 h 7.83358 v -6.6528 c 0.0503,-1.6961 1.56671,-3.522 3.13342,-3.522 1.69849,0 3.17916,1.8255 3.13343,3.522 v 10.1749 c -0.0212,0.8156 -0.39168,1.5653 -1.17504,2.348 z"
         sodipodi:nodetypes="scccccccsccs" />
      <path
         id="path322"
         style="fill:#eff1f5;fill-opacity:1;stroke-width:0.999993"
         d="m 261.14752,1167.7225 c 0.61925,0.6187 2.32022,0.8619 3.13322,0.7827 h 9.79132 c 1.6937,-0.1592 2.74157,-0.4787 2.74157,-5.0875 v 2.7394 c 0,-0.7827 -0.0275,-4.3047 -2.74157,-4.3047 H 266.239 v -6.6528 c -0.0503,-1.6961 -1.56661,-3.522 -3.13322,-3.522 -1.69838,0 -3.17895,1.8255 -3.13322,3.522 v 10.1748 c 0.0212,0.8156 0.39165,1.5654 1.17496,2.3481 z"
         sodipodi:nodetypes="scccccccsccs" />
      <path
         id="path324"
         style="fill:#eff1f5;fill-opacity:1;stroke-width:0.999993"
         d="m 298.79552,1129.3169 c -0.61925,-0.6187 -2.32022,-0.8619 -3.13322,-0.7827 h -9.79132 c -1.69371,0.1591 -2.74157,0.4786 -2.74157,5.0874 v -2.7393 c 0,0.7826 0.0275,4.3047 2.74157,4.3047 h 7.83306 v 6.6528 c 0.0503,1.6961 1.56661,3.522 3.13322,3.522 1.69837,0 3.17895,-1.8255 3.13322,-3.522 v -10.1749 c -0.0212,-0.8156 -0.39165,-1.5653 -1.17496,-2.348 z"
         sodipodi:nodetypes="scccccccsccs" />
      <path
         id="path326"
         style="fill:#eff1f5;fill-opacity:1;stroke-width:0.999983"
         d="m 261.14752,1129.3169 c 0.61925,-0.6187 2.32022,-0.8619 3.13322,-0.7827 h 9.79132 c 1.6937,0.1591 2.74157,0.4787 2.74157,5.0875 v -2.7394 c 0,0.7827 -0.0275,4.3047 -2.74157,4.3047 H 266.239 v 6.6528 c -0.0503,1.6961 -1.56661,3.522 -3.13322,3.522 -1.69838,0 -3.17895,-1.8255 -3.13322,-3.522 v -10.1748 c 0.0212,-0.8157 0.39165,-1.5654 1.17496,-2.3481 z"
         sodipodi:nodetypes="scccccccsccs" />
    </g>
  </g>
</svg>
