<?xml version="1.0" encoding="UTF-8" standalone="no"?>
<svg
   width="136"
   height="136"
   enable-background="new"
   version="1.1"
   viewBox="0 0 35.983333 35.983334"
   id="svg2279"
   sodipodi:docname="busywidget.svg"
   inkscape:version="1.2.2 (b0a8486541, 2022-12-01)"
   xmlns:inkscape="http://www.inkscape.org/namespaces/inkscape"
   xmlns:sodipodi="http://sodipodi.sourceforge.net/DTD/sodipodi-0.dtd"
   xmlns="http://www.w3.org/2000/svg"
   xmlns:svg="http://www.w3.org/2000/svg">
  <sodipodi:namedview
     id="namedview2281"
     pagecolor="#505050"
     bordercolor="#ffffff"
     borderopacity="1"
     inkscape:showpageshadow="0"
     inkscape:pageopacity="0"
     inkscape:pagecheckerboard="1"
     inkscape:deskcolor="#505050"
     showgrid="false"
     inkscape:zoom="2.6394597"
     inkscape:cx="-29.172637"
     inkscape:cy="10.039934"
     inkscape:window-width="1920"
     inkscape:window-height="1044"
     inkscape:window-x="0"
     inkscape:window-y="0"
     inkscape:window-maximized="1"
     inkscape:current-layer="busywidget" />
  <g
     transform="translate(.52916664 -249.37498)"
     id="g2277">
    <g
       id="stopped">
      <rect
         x="-42.862503"
         y="249.37497"
         width="35.983334"
         height="35.983334"
         fill="none"
         id="rect2260" />
      <g
         fill="#da4453"
         id="g2268">
        <ellipse
           transform="rotate(90)"
           cx="267.36664"
           cy="38.364582"
           rx="1.322917"
           ry="1.3229166"
           opacity=".9"
           id="ellipse2262" />
        <ellipse
           transform="rotate(90)"
           cx="267.36664"
           cy="11.377067"
           rx="1.0583339"
           ry="1.0583336"
           opacity=".9"
           id="ellipse2264" />
        <ellipse
           transform="rotate(90)"
           cx="267.36664"
           cy="24.870825"
           rx="2.116667"
           ry="2.1166663"
           opacity=".9"
           id="ellipse2266" />
      </g>
    </g>
    <rect
       id="hint-rotation-angle"
       x="-.52916706"
       y="285.35831"
       width="3.7041671"
       height="3.7041693"
       fill="#00f" />
    <g
       id="busywidget"
       transform="translate(-36.777084)">
      <g
         id="g3455">
        <path
           id="path3342"
           style="fill:rgb($crust);stroke:rgb($crust);stroke-width:2.64583;stroke-linecap:round;stroke-linejoin:round;stroke-dashoffset:6.87919;paint-order:markers fill stroke"
           d="m 22.930458,17.991665 a 4.9387908,4.9387908 0 0 1 -4.938791,4.938791 4.9387908,4.9387908 0 0 1 -4.938791,-4.938791 4.9387908,4.9387908 0 0 1 4.938791,-4.938791 4.9387908,4.9387908 0 0 1 4.938791,4.938791 z"
           transform="translate(36.247917,249.37498)" />
        <path
           id="path3401"
           style="color:#000000;fill:rgb($mantle);fill-opacity:1;stroke-width:2.64583;stroke-linecap:round;stroke-linejoin:round;stroke-dashoffset:6.87919;-inkscape-stroke:none;paint-order:markers fill stroke"
           d="M 17.992184 14.374833 C 15.979526 14.374833 14.374833 15.979526 14.374833 17.992184 C 14.374833 20.004843 15.979526 21.607467 17.992184 21.607467 C 20.004843 21.607467 21.607467 20.004843 21.607467 17.992184 C 21.607467 15.979526 20.004843 14.374833 17.992184 14.374833 z "
           transform="translate(36.247917,249.37498)" />
        <path
           style="color:#000000;fill:rgb(REPLACE--ACCENT);fill-opacity:0.96482414;stroke-linecap:round;stroke-linejoin:round;stroke-dashoffset:6.87919;-inkscape-stroke:none;paint-order:markers fill stroke;opacity:0.3"
           d="m 17.992187,11.730469 c -3.442571,0 -6.261718,2.819147 -6.261718,6.261718 0,3.442572 2.819147,6.261719 6.261718,6.261719 3.442572,0 6.261719,-2.819147 6.261719,-6.261719 0,-3.442571 -2.819147,-6.261718 -6.261719,-6.261718 z m 0,2.644531 c 2.012661,0 3.615235,1.604527 3.615235,3.617187 0,2.012661 -1.602574,3.615235 -3.615235,3.615235 -2.01266,0 -3.617187,-1.602574 -3.617187,-3.615235 0,-2.01266 1.604527,-3.617187 3.617187,-3.617187 z"
           id="path3403"
           transform="translate(36.247917,249.37498)" />
        <path
           style="fill:none;fill-opacity:1;stroke:rgb(REPLACE--ACCENT);stroke-width:2.64583;stroke-linecap:round;stroke-linejoin:round;stroke-dasharray:none;stroke-dashoffset:6.87919;paint-order:markers fill stroke"
           id="path3234"
           sodipodi:type="arc"
           sodipodi:cx="17.991667"
           sodipodi:cy="17.991665"
           sodipodi:rx="4.9387908"
           sodipodi:ry="4.9387908"
           sodipodi:start="0"
           sodipodi:end="1.5707963"
           sodipodi:arc-type="arc"
           d="m 22.930458,17.991665 a 4.9387908,4.9387908 0 0 1 -4.938791,4.938791"
           sodipodi:open="true"
           transform="translate(36.247917,249.37498)" />
      </g>
      <rect
         x="36.247917"
         y="249.37498"
         width="35.983334"
         height="35.983334"
         fill="none"
         id="rect2272" />
    </g>
  </g>
</svg>
